<svg xmlns="http://www.w3.org/2000/svg" viewBox="0 0 150 150"><style>path{fill:#f35d15;}</style><g id="Layer_2" data-name="Layer 2"><path d="M105.59,5.23a4.54,4.54,0,0,1,4.54,4.54v29H83.65v-29a4.54,4.54,0,0,1,4.54-4.54h17.4m0-5.23H88.19a9.78,9.78,0,0,0-9.77,9.77V44h36.94V9.77A9.78,9.78,0,0,0,105.59,0Z"></path><path d="M61.81,19.73a4.54,4.54,0,0,1,4.54,4.54v58.3H39.87V24.27a4.54,4.54,0,0,1,4.54-4.54h17.4m0-5.23H44.41a9.78,9.78,0,0,0-9.77,9.77V87.8H71.58V24.27a9.78,9.78,0,0,0-9.77-9.77Z"></path><path d="M66.35,120v20.28a4.54,4.54,0,0,1-4.54,4.54H44.41a4.54,4.54,0,0,1-4.54-4.54V120H66.35m5.23-5.23H34.64v25.51A9.78,9.78,0,0,0,44.41,150h17.4a9.78,9.78,0,0,0,9.77-9.77V114.72Z"></path><path d="M22.14,88H78.2V114.5H22.14A4.54,4.54,0,0,1,17.6,110V92.56A4.54,4.54,0,0,1,22.14,88m0-5.23a9.78,9.78,0,0,0-9.76,9.77V110a9.78,9.78,0,0,0,9.76,9.77H83.43V82.79H22.14Z"></path><path d="M138.11,88a4.54,4.54,0,0,1,4.54,4.54V110a4.54,4.54,0,0,1-4.54,4.54H115.58V88h22.53m0-5.23H110.35v36.94h27.76a9.78,9.78,0,0,0,9.76-9.77V92.56a9.78,9.78,0,0,0-9.76-9.77Z"></path><path d="M110.13,76.17v49.56a4.54,4.54,0,0,1-4.54,4.54H88.19a4.54,4.54,0,0,1-4.54-4.54V76.17h26.48m5.23-5.23H78.42v54.79a9.78,9.78,0,0,0,9.77,9.77h17.4a9.78,9.78,0,0,0,9.77-9.77V70.94Z"></path><path d="M11.89,44.24H34.42V70.72H11.89a4.54,4.54,0,0,1-4.54-4.54V48.78a4.54,4.54,0,0,1,4.54-4.54m0-5.23a9.78,9.78,0,0,0-9.76,9.77v17.4A9.78,9.78,0,0,0,11.89,76H39.65V39H11.89Z"></path><path d="M127.86,44.24a4.54,4.54,0,0,1,4.54,4.54v17.4a4.54,4.54,0,0,1-4.54,4.54H71.8V44.24h56.06m0-5.23H66.57V76h61.29a9.78,9.78,0,0,0,9.76-9.77V48.78A9.78,9.78,0,0,0,127.86,39Z"></path></g></svg>