<svg xmlns="http://www.w3.org/2000/svg" xmlns:xlink="http://www.w3.org/1999/xlink" viewBox="0 0 150 150"><defs><style>path,polygon{fill:#f35d15;}.cls-1{clip-path:url(#clip-path-people);}.cls-2{clip-path:url(#clip-path-2-people);}.cls-3{clip-path:url(#clip-path-3-people);}.cls-4{clip-path:url(#clip-path-4-people);}</style><clipPath id="clip-path-people"><path d="M79,25.38a4.4,4.4,0,0,1,1.52-1.73,4,4,0,0,1,4.17-.12,3.41,3.41,0,0,1,1.7,3.22,2.16,2.16,0,0,1-3.58,1.49c.13.74,1.9,1.94,4.21,1.77,4.35-.32,7.56-6.27,8.42-8.52a2.17,2.17,0,0,1,4,1.54c-.17.43-4.16,10.71-12.16,11.3-4.5.32-8.46-2.21-8.83-5.66A5.86,5.86,0,0,1,79,25.38Z"></path></clipPath><clipPath id="clip-path-2-people"><path d="M81,13.2a4.33,4.33,0,0,0,.88,2.11,4,4,0,0,0,3.91,1.46,3.42,3.42,0,0,0,2.65-2.51,2.17,2.17,0,0,0-1.54-2.65,2.24,2.24,0,0,0-1.38.09c.36-.66,2.42-1.22,4.55-.32,4,1.7,5.16,8.36,5.25,10.77A2.17,2.17,0,0,0,99.65,22c0-.47-.51-11.48-7.89-14.6C87.6,5.64,83,6.77,81.58,9.92A5.87,5.87,0,0,0,81,13.2Z"></path></clipPath><clipPath id="clip-path-3-people"><path d="M58.41,89.58a2.24,2.24,0,0,1,.76-1.21,2.35,2.35,0,0,1,3.31.28l12.34,14.63a2.35,2.35,0,1,1-3.59,3L58.89,91.68A2.33,2.33,0,0,1,58.41,89.58Z"></path></clipPath><clipPath id="clip-path-4-people"><path d="M58.4,89.58A2.36,2.36,0,0,1,59.84,88l17.87-6.86A2.35,2.35,0,0,1,79.4,85.5L61.52,92.36a2.34,2.34,0,0,1-3-1.36A2.39,2.39,0,0,1,58.4,89.58Z"></path></clipPath></defs><g id="Layer_2-people" data-name="Layer 2"><path d="M125.91,50.39A14.06,14.06,0,1,1,140,36.33,14.11,14.11,0,0,1,125.91,50.39Zm0-23.44a9.38,9.38,0,1,0,9.43,9.38A9.42,9.42,0,0,0,125.91,27Z"></path><path d="M39.35,34a13.5,13.5,0,0,1-2.3-.22,2,2,0,0,1-.49-.14,2.31,2.31,0,0,1-.52-.06,14,14,0,1,1,3.31.42Zm-1.9-4.88a2.19,2.19,0,0,1,.36,0,9.29,9.29,0,1,0-.68-.13Z"></path><path d="M37.43,33.79a2.43,2.43,0,0,1-.38,0c-.35-.06-.68-.12-1-.2A2.35,2.35,0,0,1,37.14,29a5,5,0,0,0,.67.13,2.35,2.35,0,0,1-.38,4.66Z"></path><path d="M14.8,69.72a2.57,2.57,0,0,1-.72-.11,2.34,2.34,0,0,1-1.51-3l.09-.28a2.34,2.34,0,0,1,4.46,1.44l-.09.27A2.34,2.34,0,0,1,14.8,69.72Z"></path><path d="M42.19,52.73a2.38,2.38,0,0,1-.46,0,3.19,3.19,0,0,1-.44-.13,2.56,2.56,0,0,1-.4-.22,2,2,0,0,1-.36-.29,2.37,2.37,0,0,1,0-3.32,2.54,2.54,0,0,1,.36-.29,1.9,1.9,0,0,1,.4-.21,2.25,2.25,0,0,1,.44-.14,2.34,2.34,0,1,1,.46,4.64Z"></path><path d="M79.69,66.8a2.43,2.43,0,0,1-.83-.15L41.36,52.58A2.34,2.34,0,1,1,43,48.2l37.5,14.06a2.34,2.34,0,0,1-.82,4.54Z"></path><path d="M25.2,38.47a2.37,2.37,0,0,1-1.27-.37,2.34,2.34,0,0,1-.71-3.23l.11-.18c.13-.21.26-.42.4-.61a2.35,2.35,0,0,1,3.77,2.79,2.13,2.13,0,0,0-.16.25c-.05.09-.11.18-.17.27A2.32,2.32,0,0,1,25.2,38.47Z"></path><path d="M13.51,73.83a2.56,2.56,0,0,1-.71-.11,2.35,2.35,0,0,1-1.52-3L21.59,38.42a13,13,0,0,1,1.63-3.55,2.34,2.34,0,1,1,4,2.52A8.4,8.4,0,0,0,26.1,39.7l0,.1L15.75,72.2A2.36,2.36,0,0,1,13.51,73.83Z"></path><path d="M25.2,38.47a2.25,2.25,0,0,1-.72-.11,2.34,2.34,0,0,1-1.51-3l.08-.27a2.35,2.35,0,0,1,4.47,1.43l-.09.28A2.34,2.34,0,0,1,25.2,38.47Z"></path><path d="M37.43,33.79a2.13,2.13,0,0,1-.7-.11l-.1,0-.15,0-.34-.06A2.34,2.34,0,1,1,37,29l.13,0,.43.07a2.62,2.62,0,0,1,.39.09l.15.05a2.34,2.34,0,0,1-.7,4.58Z"></path><path d="M79.69,55.08a2.32,2.32,0,0,1-1.13-.29c-.34-.19-34.19-18.67-41.84-21.11a2.35,2.35,0,1,1,1.42-4.47c8.08,2.58,41.26,20.7,42.67,21.47a2.34,2.34,0,0,1-1.12,4.4Z"></path><path d="M25.61,37.82a2.29,2.29,0,0,1-1.39-.47,2.34,2.34,0,0,1-.48-3.28A13.43,13.43,0,0,1,37,29a2.34,2.34,0,0,1-.91,4.6,8.7,8.7,0,0,0-8.63,3.29A2.35,2.35,0,0,1,25.61,37.82Z"></path><path d="M42.19,52.73a2.38,2.38,0,0,1-.46,0,3.19,3.19,0,0,1-.44-.13,2.56,2.56,0,0,1-.4-.22,2,2,0,0,1-.36-.29,2.37,2.37,0,0,1,0-3.32,2.54,2.54,0,0,1,.36-.29,1.9,1.9,0,0,1,.4-.21,2.25,2.25,0,0,1,.44-.14,2.34,2.34,0,1,1,.46,4.64Z"></path><path d="M58.05,119.88a2.35,2.35,0,0,1-2.35-2.35V85.77a9.32,9.32,0,0,0-5.19-8.39L36.2,70.25A2.35,2.35,0,0,1,35,67.52l5-17.76A2.35,2.35,0,1,1,44.45,51L40,66.92,52.6,73.18a14,14,0,0,1,7.79,12.59v31.76A2.35,2.35,0,0,1,58.05,119.88Z"></path><path d="M22.41,126.4a2.69,2.69,0,0,1-.4,0,2.34,2.34,0,0,1-1.91-2.71l7.51-43.2A2.35,2.35,0,0,1,31,78.76l14.06,7a2.35,2.35,0,0,1,1.29,1.95l2,31.86a2.34,2.34,0,0,1-2.19,2.48,2.37,2.37,0,0,1-2.49-2.19l-1.9-30.51-10-5-7,40.1A2.35,2.35,0,0,1,22.41,126.4Z"></path><path d="M9.59,128.75H9.42a2.34,2.34,0,0,1-2.17-2.5l3.93-54.92a2.34,2.34,0,0,1,4.67.33l-3.92,54.92A2.35,2.35,0,0,1,9.59,128.75Z"></path><path d="M118.82,67.33A2.36,2.36,0,0,1,116.48,65a2.3,2.3,0,0,1,0-.45,2.23,2.23,0,0,1,.13-.44,3.17,3.17,0,0,1,.21-.41,2.52,2.52,0,0,1,.3-.35,2.33,2.33,0,0,1,3.31,0,1.93,1.93,0,0,1,.29.35,2.32,2.32,0,0,1,.22.41,3.19,3.19,0,0,1,.13.44,2.3,2.3,0,0,1,0,.45,2.5,2.5,0,0,1,0,.47,3.52,3.52,0,0,1-.13.43,2.62,2.62,0,0,1-.51.76A2.36,2.36,0,0,1,118.82,67.33Z"></path><path d="M140.62,92.58a2.35,2.35,0,0,1-2.34-2.35V62A9.41,9.41,0,0,0,129,52.62l-9.49-.09-37.66,2.1a3.74,3.74,0,0,0,.21,7.48l36.8.53a2.35,2.35,0,1,1-.07,4.69L82,66.8A8.43,8.43,0,0,1,81.57,50l37.75-2.1h.16l9.56.1A14.1,14.1,0,0,1,143,62V90.23A2.35,2.35,0,0,1,140.62,92.58Z"></path><path d="M86.88,119.19a2.41,2.41,0,0,1-.64-.09,2.33,2.33,0,0,1-1.62-2.88l5.87-21a14.06,14.06,0,0,1,9-9.52l17.28-5.87L116.48,65a2.35,2.35,0,0,1,4.69-.09l.34,16.56a2.35,2.35,0,0,1-1.59,2.27L101,90.19a9.35,9.35,0,0,0-6,6.35l-5.88,20.94A2.33,2.33,0,0,1,86.88,119.19Z"></path><path d="M118.82,67.33A2.36,2.36,0,0,1,116.48,65a2.3,2.3,0,0,1,0-.45,2.23,2.23,0,0,1,.13-.44,3.17,3.17,0,0,1,.21-.41,2.52,2.52,0,0,1,.3-.35,2.33,2.33,0,0,1,3.31,0,1.93,1.93,0,0,1,.29.35,2.32,2.32,0,0,1,.22.41,3.19,3.19,0,0,1,.13.44,2.3,2.3,0,0,1,0,.45,2.5,2.5,0,0,1,0,.47,3.52,3.52,0,0,1-.13.43,2.62,2.62,0,0,1-.51.76A2.36,2.36,0,0,1,118.82,67.33Z"></path><path d="M140.62,141.25a2.34,2.34,0,0,1-2.34-2.34V90.23a2.35,2.35,0,0,1,4.69,0v48.68A2.35,2.35,0,0,1,140.62,141.25Z"></path><path d="M127.78,136a2.34,2.34,0,0,1-2.33-2.11l-3.3-33.69-15.38,3.74-5.7,18.52a2.34,2.34,0,0,1-4.48-1.38l6.09-19.8a2.31,2.31,0,0,1,1.69-1.58L123.67,95a2.36,2.36,0,0,1,1.91.36,2.38,2.38,0,0,1,1,1.69l3.57,36.37A2.34,2.34,0,0,1,128,136Z"></path><path d="M2.34,130.08a2.34,2.34,0,0,1-.42-4.65l7.25-1.33a2.34,2.34,0,1,1,.84,4.61L2.77,130A2.15,2.15,0,0,1,2.34,130.08Z"></path><path d="M58,119.88a2.34,2.34,0,0,1-.42-4.65l21.1-3.86a2.34,2.34,0,0,1,.84,4.61l-21.09,3.86A2.15,2.15,0,0,1,58,119.88Z"></path><path d="M22.4,126.4a2.34,2.34,0,0,1-.42-4.65l23.57-4.31a2.34,2.34,0,1,1,.85,4.61l-23.57,4.32A3.11,3.11,0,0,1,22.4,126.4Z"></path><path d="M86.88,119.19A2.31,2.31,0,0,1,86,119l-7.74-3.18A2.35,2.35,0,0,1,80,111.5l7.74,3.18a2.34,2.34,0,0,1-.89,4.51Z"></path><path d="M127.79,136a2.31,2.31,0,0,1-.89-.17l-29-11.89a2.34,2.34,0,1,1,1.78-4.33l29,11.88a2.34,2.34,0,0,1-.89,4.51Z"></path><path d="M147.65,144.14a2.31,2.31,0,0,1-.88-.18l-7-2.88a2.35,2.35,0,0,1,1.78-4.34l7,2.89a2.34,2.34,0,0,1-.9,4.51Z"></path><path d="M75,139.45a2.47,2.47,0,0,1-1-.24,2.35,2.35,0,0,1-1-3.15l1.42-2.84L69,129.68a2.34,2.34,0,0,1-.68-3.19l8.82-14.06a2.34,2.34,0,1,1,4,2.49l-7.61,12.13,5.13,3.42a2.34,2.34,0,0,1,.8,3l-2.34,4.69A2.34,2.34,0,0,1,75,139.45Z"></path><path d="M79,25.38a4.4,4.4,0,0,1,1.52-1.73,4,4,0,0,1,4.17-.12,3.41,3.41,0,0,1,1.7,3.22,2.16,2.16,0,0,1-3.58,1.49c.13.74,1.9,1.94,4.21,1.77,4.35-.32,7.56-6.27,8.42-8.52a2.17,2.17,0,0,1,4,1.54c-.17.43-4.16,10.71-12.16,11.3-4.5.32-8.46-2.21-8.83-5.66A5.86,5.86,0,0,1,79,25.38Z"></path><g class="cls-1"><polygon points="75.79 28.94 90.48 39.69 89.57 40.81 75.45 29.36 75.79 28.94"></polygon><polygon points="77.53 26.8 92.22 37.54 90.48 39.69 75.79 28.94 77.53 26.8"></polygon><polygon points="79.27 24.65 93.96 35.4 92.22 37.54 77.53 26.8 79.27 24.65"></polygon><polygon points="81.01 22.51 95.7 33.26 93.96 35.4 79.27 24.65 81.01 22.51"></polygon><polygon points="82.75 20.37 97.44 31.11 95.7 33.26 81.01 22.51 82.75 20.37"></polygon><polygon points="84.49 18.22 99.18 28.97 97.44 31.11 82.75 20.37 84.49 18.22"></polygon><polygon points="86.23 16.08 100.92 26.83 99.18 28.97 84.49 18.22 86.23 16.08"></polygon><polygon points="87.97 13.94 102.66 24.68 100.92 26.83 86.23 16.08 87.97 13.94"></polygon><polygon points="102.66 24.68 87.97 13.94 89.19 12.44 103.3 23.89 102.66 24.68"></polygon></g><path d="M81,13.2a4.33,4.33,0,0,0,.88,2.11,4,4,0,0,0,3.91,1.46,3.42,3.42,0,0,0,2.65-2.51,2.17,2.17,0,0,0-1.54-2.65,2.24,2.24,0,0,0-1.38.09c.36-.66,2.42-1.22,4.55-.32,4,1.7,5.16,8.36,5.25,10.77A2.17,2.17,0,0,0,99.65,22c0-.47-.51-11.48-7.89-14.6C87.6,5.64,83,6.77,81.58,9.92A5.87,5.87,0,0,0,81,13.2Z"></path><g class="cls-2"><polygon points="89.14 21.62 96.55 27.05 96.26 27.4 89.14 21.62"></polygon><polygon points="79.48 11.14 98.29 24.9 96.55 27.05 89.14 21.62 78.19 12.74 79.48 11.14"></polygon><polygon points="81.22 9 100.03 22.76 98.29 24.9 79.48 11.14 81.22 9"></polygon><polygon points="82.96 6.86 101.77 20.62 100.03 22.76 81.22 9 82.96 6.86"></polygon><polygon points="84.7 4.71 103.51 18.47 101.77 20.62 82.96 6.86 84.7 4.71"></polygon><polygon points="86.44 2.57 105.25 16.33 103.51 18.47 84.7 4.71 86.44 2.57"></polygon><polygon points="105.25 16.33 86.44 2.57 87.6 1.14 105.67 15.81 105.25 16.33"></polygon></g><path d="M58.41,89.58a2.24,2.24,0,0,1,.76-1.21,2.35,2.35,0,0,1,3.31.28l12.34,14.63a2.35,2.35,0,1,1-3.59,3L58.89,91.68A2.33,2.33,0,0,1,58.41,89.58Z"></path><g class="cls-3"><polygon points="72.02 107.26 73.46 108.31 73.4 108.38 72.02 107.26"></polygon><polygon points="55.99 92.12 75.2 106.17 73.46 108.31 72.02 107.26 54.95 93.41 55.99 92.12"></polygon><polygon points="57.73 89.98 76.94 104.03 75.2 106.17 55.99 92.12 57.73 89.98"></polygon><polygon points="59.47 87.84 78.67 101.88 76.94 104.03 57.73 89.98 59.47 87.84"></polygon><polygon points="78.67 101.88 59.47 87.84 60.42 86.67 78.87 101.64 78.67 101.88"></polygon></g><path d="M58.4,89.58A2.36,2.36,0,0,1,59.84,88l17.87-6.86A2.35,2.35,0,0,1,79.4,85.5L61.52,92.36a2.34,2.34,0,0,1-3-1.36A2.39,2.39,0,0,1,58.4,89.58Z"></path><g class="cls-4"><polygon points="57.7 89.96 69.57 98.64 68.5 99.96 57.09 90.71 57.7 89.96"></polygon><polygon points="59.44 87.81 71.31 96.49 69.57 98.64 57.7 89.96 59.44 87.81"></polygon><polygon points="61.18 85.67 73.05 94.35 71.31 96.49 59.44 87.81 61.18 85.67"></polygon><polygon points="62.92 83.53 74.79 92.21 73.05 94.35 61.18 85.67 62.92 83.53"></polygon><polygon points="64.66 81.38 76.53 90.06 74.79 92.21 62.92 83.53 64.66 81.38"></polygon><polygon points="66.4 79.24 78.27 87.92 76.53 90.06 64.66 81.38 66.4 79.24"></polygon><polygon points="68.14 77.1 80.01 85.78 78.27 87.92 66.4 79.24 68.14 77.1"></polygon><polygon points="69.88 74.95 81.75 83.63 80.01 85.78 68.14 77.1 69.88 74.95"></polygon><polygon points="81.75 83.63 69.88 74.95 70.93 73.66 82.33 82.91 81.75 83.63"></polygon></g><path d="M79.55,49.34a2.42,2.42,0,0,0,0,1.78l8.5,0a21.77,21.77,0,0,0-5.49-3.21A2.39,2.39,0,0,0,79.55,49.34Z"></path><path d="M77.26,65.19l-1-.06A2.3,2.3,0,0,0,77.26,65.19Z"></path><path d="M77,35.32a16.36,16.36,0,0,0-10.48,9.32c0,.1-.08.2-.13.3l4.19,2.34c.09-.21.17-.42.27-.64a11.56,11.56,0,0,1,7.45-6.73c5-1.42,11,.4,14.65,2.84a26.94,26.94,0,0,1,8.32,8.41h5.4a31.09,31.09,0,0,0-11.08-12.4C91.3,36,83.88,33.36,77,35.32Z"></path><path d="M104,66.68a37.4,37.4,0,0,1-1.83,7,25.37,25.37,0,0,1-12.23,14,27,27,0,0,1-18.44,3,91.56,91.56,0,0,1-9.35-2.2,2.39,2.39,0,1,0-1.5,4.53,97.57,97.57,0,0,0,9.92,2.35,32.08,32.08,0,0,0,21.63-3.47,30.9,30.9,0,0,0,9.51-7.75,30.13,30.13,0,0,0,4.93-8.77,41.09,41.09,0,0,0,2.14-8.35Z"></path><path d="M56.48,39.44a.14.14,0,0,0,0-.06,25.42,25.42,0,0,1,12.23-14,27,27,0,0,1,18.44-3,94.28,94.28,0,0,1,9.35,2.2A2.39,2.39,0,1,0,98,20.09a94.86,94.86,0,0,0-9.92-2.34,32.07,32.07,0,0,0-21.63,3.46A30,30,0,0,0,52.28,37.1Z"></path><path d="M81.7,77.7a15.71,15.71,0,0,0,8-5.29,19.43,19.43,0,0,0,2.48-4,20.22,20.22,0,0,0,.88-2.32l-5-.27c-.08.19-.15.38-.24.58a11.61,11.61,0,0,1-7.46,6.74c-5,1.42-11-.41-14.65-2.84C61.46,67.43,57.11,63.15,55.27,57l-5.38-2.18c1.53,10,8.25,16.17,13.22,19.47C67.35,77.07,74.77,79.66,81.7,77.7Z"></path></g></svg>