<svg xmlns="http://www.w3.org/2000/svg" viewBox="0 0 150 150"><defs><style>path,polygon{fill:#f35d15;}.cls-1{clip-path:url(#clip-path-results);}</style><clipPath id="clip-path-results"><path d="M133.77,70A5.25,5.25,0,0,0,136.3,69,4.77,4.77,0,0,0,138,64.31a4.08,4.08,0,0,0-3-3.16A2.58,2.58,0,0,0,131.89,63a2.65,2.65,0,0,0,.1,1.65c-.78-.43-1.46-2.89-.38-5.44,2-4.79,10-6.14,12.87-6.25a2.59,2.59,0,0,0-.19-5.17c-.56,0-13.71.59-17.44,9.41-2.1,5-.75,10.42,3,12.15A6.94,6.94,0,0,0,133.77,70Z"></path></clipPath></defs><g id="Layer_2" data-name="Layer 2"><path d="M18.75,107.14a2.58,2.58,0,0,1-1-.2,2.68,2.68,0,0,1-1.66-2.48V91.07H10.71A10.73,10.73,0,0,1,0,80.36V40.18A10.73,10.73,0,0,1,10.71,29.46H88.39A10.73,10.73,0,0,1,99.11,40.18v5.36a2.68,2.68,0,0,1-5.36,0V40.18a5.36,5.36,0,0,0-5.36-5.36H10.71a5.36,5.36,0,0,0-5.35,5.36V80.36a5.36,5.36,0,0,0,5.35,5.35h8a2.68,2.68,0,0,1,2.68,2.68V98l11.5-11.5a2.68,2.68,0,0,1,1.89-.79H53.57a2.68,2.68,0,0,1,0,5.36H35.93L20.64,106.36A2.66,2.66,0,0,1,18.75,107.14Z"></path><path d="M88.39,91.07H53.57a2.68,2.68,0,0,1,0-5.36H88.39a5.36,5.36,0,0,0,5.36-5.35V56.25a2.68,2.68,0,1,1,5.36,0V80.36A10.73,10.73,0,0,1,88.39,91.07Z"></path><path d="M53.57,80.36a2.68,2.68,0,0,1-2.68-2.68V53.57A10.72,10.72,0,0,1,61.61,42.86H96.43a2.68,2.68,0,1,1,0,5.35H61.61a5.37,5.37,0,0,0-5.36,5.36V77.68A2.68,2.68,0,0,1,53.57,80.36Z"></path><path d="M128.57,120.54a2.67,2.67,0,0,1-1.89-.79l-15.29-15.29H61.61A10.72,10.72,0,0,1,50.89,93.75V88.39a2.68,2.68,0,1,1,5.36,0v5.36a5.37,5.37,0,0,0,5.36,5.36H112.5a2.67,2.67,0,0,1,1.89.78l11.5,11.5v-9.6a2.68,2.68,0,0,1,2.68-2.68h10.72a5.36,5.36,0,0,0,5.35-5.36V53.57a5.36,5.36,0,0,0-5.35-5.36H96.43a2.68,2.68,0,1,1,0-5.35h42.86A10.72,10.72,0,0,1,150,53.57V93.75a10.72,10.72,0,0,1-10.71,10.71h-8v13.4a2.67,2.67,0,0,1-1.65,2.47A2.64,2.64,0,0,1,128.57,120.54Z"></path><path d="M69.64,77.68a2.64,2.64,0,0,1-1.89-.79l-5.36-5.35a2.68,2.68,0,0,1,3.79-3.79l3.46,3.46L83.82,57a2.68,2.68,0,1,1,3.79,3.79L71.54,76.89A2.66,2.66,0,0,1,69.64,77.68Z"></path><path d="M133.77,70A5.25,5.25,0,0,0,136.3,69,4.77,4.77,0,0,0,138,64.31a4.08,4.08,0,0,0-3-3.16A2.58,2.58,0,0,0,131.89,63a2.65,2.65,0,0,0,.1,1.65c-.78-.43-1.46-2.89-.38-5.44,2-4.79,10-6.14,12.87-6.25a2.59,2.59,0,0,0-.19-5.17c-.56,0-13.71.59-17.44,9.41-2.1,5-.75,10.42,3,12.15A6.94,6.94,0,0,0,133.77,70Z"></path><g class="cls-1"><polygon points="143.84 60.32 150.32 51.47 150.75 51.82 143.84 60.32"></polygon><polygon points="131.32 71.84 147.76 49.39 150.32 51.47 143.84 60.32 133.22 73.39 131.32 71.84"></polygon><polygon points="128.76 69.76 145.21 47.31 147.76 49.39 131.32 71.84 128.76 69.76"></polygon><polygon points="126.21 67.68 142.65 45.23 145.21 47.31 128.76 69.76 126.21 67.68"></polygon><polygon points="123.65 65.6 140.09 43.16 142.65 45.23 126.21 67.68 123.65 65.6"></polygon><polygon points="121.09 63.53 137.53 41.08 140.09 43.16 123.65 65.6 121.09 63.53"></polygon><polygon points="137.53 41.08 121.09 63.53 119.39 62.14 136.91 40.57 137.53 41.08"></polygon></g></g></svg>
